# xmcd CD database file
#
# Track frame offsets:
#	150
#	15033
#	26431
#	42549
#	52266
#	66068
#	81854
#	104920
#	119479
#	134665
#	146829
#	165725
#	174981
#
# Disc length: 2578 seconds
#
# Revision: 0
# Processed by: cddbd v1.5.1PL0 Copyright (c) Steve Scherf et al.
# Submitted via: CDex 1.51
#
DISCID=bb0a100d
DTITLE=Phil Edwards - Wild and Free
DYEAR=2001
DGENRE=Country
TTITLE0=Still In Love With You
TTITLE1=Every Time I Roll The Dice
TTITLE2=Seminole Wind
TTITLE3=Rub-A-Dubbin´
TTITLE4=Then You Can Tell Me Good Bye
TTITLE5=Only Here For A Little While
TTITLE6=I Washed My Hands In Muddy Waters
TTITLE7=You Can´t Make A Heart Love Somebody
TTITLE8=Now That´s Country
TTITLE9=It´s A Little Too Late
TTITLE10=Old Time Rock'N'Roll
TTITLE11=My Ryfle, My Pony And Me
TTITLE12=Old Time Rock'N'Roll (remix)
EXTD=YEAR: 2001
EXTT0=
EXTT1=
EXTT2=
EXTT3=
EXTT4=
EXTT5=
EXTT6=
EXTT7=
EXTT8=
EXTT9=
EXTT10=
EXTT11=
EXTT12=
PLAYORDER=
